ffmpeg started on 2025-06-30 at 14:45:20
Report written to "D:\Convert\FFMetrics\reports\ssim_report-6.txt"
Log level: 32
Command line:
ffmpeg -hide_banner -nostdin -i "G:\\\xc0\xed\xe8\xec\xe5\\\xce\xed\xe3\xee\xe8\xed\xe3\xe8\\!_37_\xc7\xe8\xec\xe0_2025\\JamClub\\\xc3\xee\xf1\xef\xee\xe4\xe8\xed \xe8 \xef\xb8\xf1\\JamClub_Tono_to_Inu_Woof_Woof!_S01E15_1080p_HEVC.mkv" -i "G:\\\xc0\xed\xe8\xec\xe5\\\xce\xed\xe3\xee\xe8\xed\xe3\xe8\\!_37_\xc7\xe8\xec\xe0_2025\\JamClub\\\xc3\xee\xf1\xef\xee\xe4\xe8\xed \xe8 \xef\xb8\xf1\\JamClub_Tono_to_Inu_Woof_Woof!_S01E15_1080p.mp4" -lavfi "[0:v]settb=AVTB,setpts=PTS-STARTPTS,format=pix_fmts=yuv420p10,fps=24000/1001,scale=1920:1080:flags=bicubic[main];[1:v]settb=AVTB,setpts=PTS-STARTPTS,format=pix_fmts=yuv420p,fps=24000/1001,scale=1920:1080:flags=bicubic[ref];[main][ref]ssim=eof_action=endall:stats_file='D\\:/Convert/FFMetrics/logs/ssim_logfile-6.txt'" -f null -
Input #0, matroska,webm, from 'G:\Аниме\Онгоинги\!_37_Зима_2025\JamClub\Господин и пёс\JamClub_Tono_to_Inu_Woof_Woof!_S01E15_1080p_HEVC.mkv':
  Metadata:
    COMPATIBLE_BRANDS: isomiso2avc1mp41
    MAJOR_BRAND     : isom
    MINOR_VERSION   : 512
    ENCODER         : Lavf61.7.100
  Duration: 00:02:52.23, start: -0.021000, bitrate: 2126 kb/s
  Stream #0:0: Video: hevc (Main 10), yuv420p10le(tv, bt709, progressive), 1920x1080 [SAR 1:1 DAR 16:9], 23.98 fps, 23.98 tbr, 1k tbn (default)
      Metadata:
        HANDLER_NAME    : VideoHandler
        VENDOR_ID       : [0][0][0][0]
        ENCODER         : Lavc61.19.100 libx265
        BPS             : 1928584
        DURATION        : 00:02:52.129708333
        NUMBER_OF_FRAMES: 4127
        NUMBER_OF_BYTES : 41495672
        _STATISTICS_WRITING_APP: mkvpropedit v66.0.0 ('Josie') 64-bit
        _STATISTICS_WRITING_DATE_UTC: 2025-06-28 16:07:20
        _STATISTICS_TAGS: BPS DURATION NUMBER_OF_FRAMES NUMBER_OF_BYTES
  Stream #0:1(eng): Audio: aac (LC), 48000 Hz, stereo, fltp (default)
      Metadata:
        HANDLER_NAME    : SoundHandler
        VENDOR_ID       : [0][0][0][0]
        ENCODER         : Lavc61.19.100 aac
        BPS             : 195016
        DURATION        : 00:02:52.205000000
        NUMBER_OF_FRAMES: 8073
        NUMBER_OF_BYTES : 4197845
        _STATISTICS_WRITING_APP: mkvpropedit v66.0.0 ('Josie') 64-bit
        _STATISTICS_WRITING_DATE_UTC: 2025-06-28 16:07:20
        _STATISTICS_TAGS: BPS DURATION NUMBER_OF_FRAMES NUMBER_OF_BYTES
Input #1, mov,mp4,m4a,3gp,3g2,mj2, from 'G:\Аниме\Онгоинги\!_37_Зима_2025\JamClub\Господин и пёс\JamClub_Tono_to_Inu_Woof_Woof!_S01E15_1080p.mp4':
  Metadata:
    major_brand     : isom
    minor_version   : 512
    compatible_brands: isomiso2avc1mp41
    encoder         : Lavf60.16.100
  Duration: 00:02:52.21, start: 0.000000, bitrate: 5368 kb/s
  Stream #1:0[0x1](und): Video: h264 (High) (avc1 / 0x31637661), yuv420p(tv, bt709, progressive), 1920x1080 [SAR 1:1 DAR 16:9], 5172 kb/s, 23.98 fps, 23.98 tbr, 90k tbn (default)
      Metadata:
        handler_name    : VideoHandler
        vendor_id       : [0][0][0][0]
  Stream #1:1[0x2](eng): Audio: aac (LC) (mp4a / 0x6134706D), 48000 Hz, stereo, fltp, 191 kb/s (default)
      Metadata:
        handler_name    : SoundHandler
        vendor_id       : [0][0][0][0]
Stream mapping:
  Stream #0:0 (hevc) -> settb:default
  Stream #1:0 (h264) -> settb:default
  ssim:default -> Stream #0:0 (wrapped_avframe)
  Stream #0:1 -> #0:1 (aac (native) -> pcm_s16le (native))
Output #0, null, to 'pipe:':
  Metadata:
    COMPATIBLE_BRANDS: isomiso2avc1mp41
    MAJOR_BRAND     : isom
    MINOR_VERSION   : 512
    encoder         : Lavf61.7.100
  Stream #0:0: Video: wrapped_avframe, yuv420p10le(tv, bt709, progressive), 1920x1080 [SAR 1:1 DAR 16:9], q=2-31, 200 kb/s, 23.98 fps, 23.98 tbn
      Metadata:
        encoder         : Lavc61.19.100 wrapped_avframe
  Stream #0:1(eng): Audio: pcm_s16le, 48000 Hz, stereo, s16, 1536 kb/s (default)
      Metadata:
        HANDLER_NAME    : SoundHandler
        VENDOR_ID       : [0][0][0][0]
        _STATISTICS_TAGS: BPS DURATION NUMBER_OF_FRAMES NUMBER_OF_BYTES
        BPS             : 195016
        DURATION        : 00:02:52.205000000
        NUMBER_OF_FRAMES: 8073
        NUMBER_OF_BYTES : 4197845
        _STATISTICS_WRITING_APP: mkvpropedit v66.0.0 ('Josie') 64-bit
        _STATISTICS_WRITING_DATE_UTC: 2025-06-28 16:07:20
        encoder         : Lavc61.19.100 pcm_s16le
frame=  121 fps=0.0 q=-0.0 size=N/A time=00:00:05.04 bitrate=N/A speed=9.58x    frame=  282 fps=273 q=-0.0 size=N/A time=00:00:11.76 bitrate=N/A speed=11.4x    frame=  480 fps=310 q=-0.0 size=N/A time=00:00:20.02 bitrate=N/A speed=12.9x    frame=  722 fps=348 q=-0.0 size=N/A time=00:00:30.11 bitrate=N/A speed=14.5x    frame=  951 fps=369 q=-0.0 size=N/A time=00:00:39.66 bitrate=N/A speed=15.4x    frame= 1202 fps=387 q=-0.0 size=N/A time=00:00:50.13 bitrate=N/A speed=16.1x    frame= 1412 fps=390 q=-0.0 size=N/A time=00:00:58.89 bitrate=N/A speed=16.3x    frame= 1644 fps=398 q=-0.0 size=N/A time=00:01:08.56 bitrate=N/A speed=16.6x    frame= 1853 fps=398 q=-0.0 size=N/A time=00:01:17.28 bitrate=N/A speed=16.6x    frame= 2064 fps=400 q=-0.0 size=N/A time=00:01:26.08 bitrate=N/A speed=16.7x    frame= 2288 fps=402 q=-0.0 size=N/A time=00:01:35.42 bitrate=N/A speed=16.8x    frame= 2521 fps=407 q=-0.0 size=N/A time=00:01:45.14 bitrate=N/A speed=  17x    frame= 2755 fps=410 q=-0.0 size=N/A time=00:01:54.90 bitrate=N/A speed=17.1x    frame= 2931 fps=405 q=-0.0 size=N/A time=00:02:02.24 bitrate=N/A speed=16.9x    frame= 3116 fps=403 q=-0.0 size=N/A time=00:02:09.96 bitrate=N/A speed=16.8x    frame= 3344 fps=405 q=-0.0 size=N/A time=00:02:19.47 bitrate=N/A speed=16.9x    frame= 3513 fps=400 q=-0.0 size=N/A time=00:02:26.52 bitrate=N/A speed=16.7x    frame= 3718 fps=401 q=-0.0 size=N/A time=00:02:35.07 bitrate=N/A speed=16.7x    frame= 3919 fps=400 q=-0.0 size=N/A time=00:02:43.45 bitrate=N/A speed=16.7x    [Parsed_ssim_10 @ 00000253e42fce40] SSIM Y:0.992939 (21.511605) U:0.991984 (20.960544) V:0.992247 (21.105115) All:0.992665 (21.345863)
[out#0/null @ 00000253e3b70f40] video:1773KiB audio:32292KiB subtitle:0KiB other streams:0KiB global headers:0KiB muxing overhead: unknown
frame= 4127 fps=404 q=-0.0 Lsize=N/A time=00:02:52.13 bitrate=N/A speed=16.8x    
